<svg xmlns="http://www.w3.org/2000/svg" xmlns:xlink="http://www.w3.org/1999/xlink" xml:space="preserve" width="512" height="512" viewBox="0 0 512 512"><defs><linearGradient id="b"><stop offset="0" style="stop-color:#60cd90;stop-opacity:1"/><stop offset="1" style="stop-color:#01bccc;stop-opacity:1"/></linearGradient><linearGradient id="a"><stop offset="0" style="stop-color:#60cd90;stop-opacity:1"/><stop offset="1" style="stop-color:#01bccc;stop-opacity:1"/></linearGradient><linearGradient xlink:href="#a" id="d" x1="33.5" x2="478.5" y1="268" y2="268" gradientTransform="translate(0 2)" gradientUnits="userSpaceOnUse"/><linearGradient xlink:href="#b" id="c" x1="42.235" x2="469.265" y1="255.595" y2="255.595" gradientTransform="translate(0 2)" gradientUnits="userSpaceOnUse"/></defs><g style="display:inline" transform="translate(.082 -1.959)"><circle cx="255.918" cy="257.959" r="256" style="display:inline;fill:#000;fill-opacity:1;fill-rule:nonzero;stroke:none;stroke-width:14.1;stroke-dasharray:none;stroke-opacity:1"/><path d="M256 47.875c27.75 0 72.375 34.75 72.375 66.375s14 67.375 19.125 72.5S468.75 234.25 468.75 293s-61.191 72.527-79.75 77.5c-5.424 1.453-64.04-2.95-75.425.976s-50.158 56.561-57.465 63.868c-7.306 7.307-35.208 43.47-91.86 28.29-21.084-5.65-47.644-48.103-40.68-90.267 4.016-24.325 17.302-66.68 14.43-76.117C132.3 271.02 89.75 229 89.75 229s-37.512-65.425-7.5-96.75C108.278 105.084 143 97.75 181 114.5s53.272 28.3 74.875 28.75 72.375-32 72.375-32 58.875-20.625 92.5 13 10.445 88.19 1.75 103.25-48.5 50.25-48.5 67.75 12.416 67.04 14.75 75.75.64 67.51-32.25 86.5-78 0-100.5-22.5-26.996-45.391-51-59.25-48.69 5.024-80.5-3.5-81.75-13.5-81.75-66.5S77.998 235.93 90 229s58.57-23.459 71-36.75 8.09-58.987 19.5-78.75S202 47.875 256 47.875Z" style="display:inline;fill:none;fill-opacity:1;fill-rule:nonzero;stroke:url(#c);stroke-width:14.1;stroke-dasharray:none;stroke-dashoffset:0;stroke-opacity:1"/><path d="M181.25 209.438a8.938 8.938 0 1 0 8.264 12.341h.021c.181.005 13.26-.19 29.135-.191l28.865-.004v24.842c0 16.19.2 24.774.256 25.152.19 1.27 1.806 1.499 3.027 1.59 1.648 0 1.858-.064 2.577-.77.286-.281 36.978-40.166 46.32-49.953l1.107-1.117h30.264l-1.711 1.645c-.927.89-1.69 1.704-1.713 1.824v.002c-13.344 16.5-29.95 30.378-43.2 46.926-.701 1.326-.28 3.82.862 5.103 12.925 14.517 31.956 44.025 47.97 62.004.564.598 1.024 1.187 1.024 1.31 0 .127-7.224.225-16.505.225h-16.506c-1.14-2.203-32.533-41.766-34.889-44.535-.857-.92-2.18-1.21-3.59-.787-1.967 1.15-14.361 15.133-14.781 15.637-.188.224-.236.298-.256.502-.016.166-.256 5.034-.256 14.591v14.592H219.12v-24.174c0-18.982-.006-19.977-.006-24.125 0-1.877-1.097-2.23-2.277-2.238-.232-.002-3.977-.071-9.897-.15-10.28-.138-9.08-.174-10.29-.174a8.937 8.937 0 1 0 .327 6.566c.679.002.736.008 7.788.008h7.699v47.908l-.002 1.01c-.001.752 1.042 1.327 1.404 1.336.315.008 9.451.098 19.746.08l18.719-.031c1.195-.027 1.579-.397 1.601-1.182.11-3.801.004-13.197.004-16.127h-.002v-15.59c3.203-3.312 6.12-6.669 9.276-9.894l.506-.553c.175.255 33.068 41.352 33.44 42.19.584 1.32 6.418 1.294 23.763 1.232l21.543-.076.717-.768c.614-.658.72-.985.728-2.283.013-1.584-.99-2.828-1.156-2.965-16.641-21.913-33.997-43.297-50.479-65.324-1.052-1.116-1.052-1.131.176-2.36 14.208-16.525 30.494-31.383 44.434-48.216v-.002c.012-.117.728-.904 1.6-1.756 2.378-2.326 2.808-3.013 2.808-4.492 0-1.074-.116-1.369-.795-2.018l-.795-.76h-42.164l-1.96 2.204c-11.618 13.061 7.767-7.933-39.657 42.316l-1.985 2.09v-22.537c0-12.87-.222-22.408-.224-22.537-.01-.575-.474-1.285-1.174-1.276-.477.006-11.418-.26-31.77-.26-27.462 0-30.702.057-31.04.069h-.01a8.94 8.94 0 0 0-8.465-6.07zm-.256 6.224a2.556 2.556 0 1 1-.003 5.112 2.556 2.556 0 0 1 .003-5.112m9.475 20.807a8.938 8.938 0 1 0 8.398 11.994h32.834c.756-.01 1.712-1.423 1.735-2.865.023-1.505-.921-3.041-1.76-3.041-.492 0-8.03-.239-17.1-.239-12.449 0-15.062.022-15.71.028a8.94 8.94 0 0 0-8.397-5.877m-.256 6.224a2.556 2.556 0 1 1-.003 5.112 2.556 2.556 0 0 1 .003-5.112m-14.79 15.086a8.938 8.938 0 1 0 8.417 11.944c8.99.023 19.642-.069 19.642-.069l19.899-.07c2.484 0 2.426-6.018.062-6.018h-19.88s-15.595.058-19.774.002a8.94 8.94 0 0 0-8.365-5.789m-.255 6.225a2.556 2.556 0 1 1-.003 5.112 2.556 2.556 0 0 1 .003-5.112m13.088 26.486a2.556 2.556 0 1 1-.003 5.112 2.556 2.556 0 0 1 .003-5.112" style="display:inline;fill:url(#d);fill-opacity:1;stroke:none;stroke-width:1.03093;stroke-opacity:1"/><path d="M255.918 1.959a256 256 0 0 0-256 256 256 256 0 0 0 256 256 256 256 0 0 0 256-256 256 256 0 0 0-256-256m0 38.871c16.818 0 35.61 9.568 51.203 23.045 12.294 10.626 22.64 23.942 26.512 38.469 16.564-4.602 61.56-13.531 92.02 16.927 18.733 18.734 21.6 43.494 18.746 64.52-2.388 17.586-8.414 32.58-13.18 42.033 8.917 6.633 17.384 13.847 24.49 21.826 11.662 13.095 20.01 28.346 20.01 45.356 0 31.822-17.22 52.584-36.135 64.834-15.875 10.28-32.747 15.195-43.209 17.974.141 2.848.1 6.065-.095 10.057a148.7 148.7 0 0 1-3.663 26.133c-4.472 19.143-13.545 40.563-32.673 51.607-18.535 10.701-40.126 10.533-59.604 4.983-16.78-4.781-32.017-13.576-43.79-23.705-4.68 4.979-12.17 12.553-24.606 19.246-16.285 8.764-39.643 14.341-69.6 6.314-14.091-3.776-26.324-17.304-35.322-35.064-8.316-16.413-13.35-36.9-11.098-57.969-14.533-3.516-32.003-7.03-47.674-15.535-17.957-9.747-32.633-27.41-32.633-56.125 0-28.063 9.591-47.503 20.887-60.315 8.263-9.372 17.404-15.323 23.92-19.129-3.163-6.107-8.29-16.689-12.553-32.048-5.905-21.276-8.51-48.393 9.207-66.885 26.123-27.265 62.013-35.985 99.614-22.166 4.507-9.315 10.035-23.357 19.914-36.225 11.631-15.15 30.316-28.158 59.312-28.158m0 14.102c-25.004 0-38.363 9.924-48.129 22.644-8.096 10.547-12.982 22.925-18.076 33.248 15.764 7.173 28.058 13.437 37.668 17.733 10.913 4.878 18.978 7.45 28.559 7.65 7.159.149 25.791-7.136 40.873-15.03 11.366-5.948 19.375-10.82 23.556-13.411-2.56-11.07-11.089-23.39-22.466-33.223-13.658-11.805-31.053-19.611-41.985-19.611m106.037 57.507c-12.803.64-21.545 2.792-26.49 4.163.323 14.145 3.431 29.426 7.211 41.779 1.993 6.514 4.144 12.223 6.033 16.465 1.705 3.828 3.539 6.458 3.543 6.61v.005l-.002.002h-.004q-.002 0-.006-.002c.21.153.396.303.713.473.956.511 2.408 1.231 4.203 2.095 3.591 1.728 8.58 4.05 14.438 6.881 11.715 5.664 26.934 13.383 42.113 22.887 1.96 1.227 3.897 2.564 5.848 3.85 3.972-8.437 8.953-21.613 10.873-35.752 2.502-18.428.147-37.763-14.744-52.655-14.849-14.848-36.145-17.68-53.729-16.8zm-221.965.004c-19.872.31-37.545 8.839-52.732 24.69-12.295 12.832-11.149 34.09-5.8 53.36 3.815 13.748 8.438 23.4 11.37 29.118 7.762-3.664 18.512-8.027 29.52-13.015 14.51-6.576 29.211-14.654 33.422-19.156 3.182-3.403 6.396-17.496 8.283-32.985 1.494-12.262 2.665-25.268 6.58-36.25-10.694-3.856-20.96-5.912-30.643-5.762m181.713 10.942c-5.032 2.971-11.215 6.55-18.351 10.285-15.706 8.22-33.261 16.935-47.705 16.635-12.023-.25-22.396-3.679-34.02-8.875-10.256-4.585-22.35-10.762-37.795-17.791-2.647 8.424-4.324 20.542-5.783 32.521-1.903 15.623-2.735 31.024-11.982 40.912-8.22 8.789-23.016 15.621-37.899 22.366-10.37 4.7-19.516 8.66-26.517 11.84 4.156 4.435 9.697 10.551 15.447 17.535 11.51 13.979 24.017 30.754 27.596 46.548 1.52 5.143.655 9.514-.291 15.457-.957 6.007-2.505 13.053-4.252 20.52-2.803 11.978-5.83 24.444-8.022 35.133 11.892 1.904 23 .232 34.447-1.442 13.33-1.949 27.759-3.524 41.868 4.621 13.292 7.675 21.282 18.037 28.38 28.543 5.872 8.692 11.412 17.546 19.086 26.33 1.772-2.122 2.62-3.031 5.084-6.1 4.826-6.004 10.736-13.42 16.803-20.765s12.278-14.61 17.844-20.437 9.285-10.242 15.555-12.405c4.992-1.721 10.568-1.819 17.964-1.986 7.397-.167 16.038-.026 24.461.19 8.424.215 16.625.507 22.985.652 1.188.027 1.904.016 2.95.031a842 842 0 0 1-6.028-25.781c-3.428-15.81-6.66-32.249-6.66-42.666 0-7.048 3.3-13.19 7.482-19.672s9.595-13.168 15.207-19.709c8.34-9.723 17.261-19.515 22.625-26.197-1.986-1.316-3.952-2.675-5.96-3.932-14.492-9.074-29.265-16.581-40.765-22.14-5.75-2.78-10.673-5.07-14.414-6.87-1.87-.9-3.437-1.672-4.746-2.373-1.309-.7-2.048-.808-3.863-2.623-3.044-3.044-4.43-6.27-6.608-11.16s-4.487-11.057-6.634-18.074c-3.522-11.507-6.49-25.254-7.489-39.121m-140.535 86.058a8.94 8.94 0 0 1 8.465 6.07h.01c.339-.012 3.579-.068 31.041-.068 20.352 0 31.292.266 31.77.26.7-.009 1.164.7 1.173 1.275.002.13.225 9.667.225 22.538v22.537l1.984-2.09c47.425-50.249 28.04-29.255 39.657-42.317l1.96-2.203h42.165l.795.76c.678.649.794.943.794 2.018 0 1.478-.43 2.166-2.808 4.492-.872.852-1.588 1.638-1.6 1.756v.002c-13.939 16.833-30.225 31.691-44.433 48.216-1.228 1.228-1.229 1.244-.176 2.36 16.481 22.027 33.837 43.41 50.478 65.324.167.137 1.17 1.38 1.157 2.965-.01 1.297-.114 1.625-.729 2.283l-.717.768-21.543.076c-17.344.061-23.179.088-23.763-1.233-.371-.837-33.264-41.935-33.44-42.189l-.506.553c-3.156 3.225-6.072 6.581-9.275 9.894v15.59h.002c0 2.93.106 12.326-.004 16.127-.022.785-.407 1.155-1.602 1.182l-18.718.03a1689 1689 0 0 1-19.746-.08c-.363-.008-1.405-.584-1.405-1.335l.002-1.01v-47.908h-7.699c-7.051 0-7.109-.006-7.787-.008a8.938 8.938 0 1 1-.328-6.566c1.21 0 .01.036 10.29.173 5.921.08 9.665.149 9.897.15 1.18.009 2.278.362 2.278 2.239 0 4.148.006 5.143.006 24.125v24.174h28.416V325.78c0-9.557.24-14.425.256-14.592.02-.203.068-.277.255-.502.42-.503 12.815-14.487 14.782-15.636 1.41-.423 2.733-.133 3.59.787 2.355 2.768 33.749 42.332 34.888 44.535h16.506c9.281 0 16.506-.099 16.506-.225 0-.123-.46-.712-1.024-1.31-16.015-17.979-35.045-47.487-47.97-62.004-1.143-1.284-1.564-3.777-.862-5.104 13.249-16.547 29.856-30.426 43.2-46.926v-.002c.023-.12.786-.933 1.713-1.824l1.71-1.644h-30.263l-1.108 1.117c-9.341 9.787-46.033 49.672-46.32 49.953-.719.706-.928.77-2.576.77-1.221-.091-2.838-.32-3.027-1.59-.057-.379-.256-8.962-.256-25.153V221.59l-28.866.004c-15.875.002-28.953.196-29.134.191h-.022a8.937 8.937 0 1 1-8.263-12.342zm-.256 6.225a2.556 2.556 0 1 0 0 5.112 2.556 2.556 0 0 0 0-5.112m9.475 20.807a8.94 8.94 0 0 1 8.396 5.877c.649-.006 3.262-.028 15.711-.028 9.07 0 16.608.239 17.1.239.839 0 1.783 1.535 1.76 3.04-.023 1.443-.98 2.857-1.735 2.866h-32.834a8.937 8.937 0 1 1-8.398-11.994m233.41 1.41c-6.202 8.113-15.15 17.392-23.539 27.172-5.427 6.326-10.507 12.662-14.06 18.17-3.554 5.507-5.229 10.326-5.229 12.029 0 7.082 2.976 24.165 6.34 39.678 2.649 12.215 4.797 20.546 6.433 26.968 10.287-2.808 24.958-7.336 38.178-15.898 16.32-10.57 29.697-26.07 29.697-52.998 0-12.365-6.167-24.443-16.439-35.977-6.005-6.742-13.42-13.137-21.38-19.144m-335.217.142c-6.307 3.615-14.045 8.286-21.5 16.74-9.328 10.581-17.361 26.052-17.361 50.989 0 24.286 10.293 35.61 25.258 43.732 12.713 6.9 28.692 10.37 43.383 13.975 2.299-11.21 5.333-23.67 8.062-35.338 1.718-7.342 3.205-14.176 4.057-19.525.792-4.974.582-9.158.67-9.325v-.002h.002l.002-.002h.004l.002.002.002.002q.004.005.008.014l-.078-.256-.06-.28c-2.245-10.32-13.725-27.506-24.818-40.978-7.838-9.52-13.91-15.916-17.633-19.748m101.551 4.672a2.556 2.556 0 1 0-.001 5.112 2.556 2.556 0 0 0 .001-5.112m-14.789 15.086a8.94 8.94 0 0 1 8.365 5.79c4.18.055 19.774-.003 19.774-.003h19.88c2.365 0 2.422 6.018-.062 6.018l-19.898.07s-10.653.091-19.643.068a8.937 8.937 0 1 1-8.416-11.943m-.256 6.225a2.556 2.556 0 1 0-.001 5.112 2.556 2.556 0 0 0 .001-5.112m13.088 26.486a2.556 2.556 0 1 0-.001 5.112 2.556 2.556 0 0 0 .001-5.112m141.303 86.43c-6.933.156-12.9.97-13.645 1.215v.002h.002v.006c-.095.228-5.162 3.75-9.996 8.81-5.134 5.375-11.207 12.462-17.17 19.68-5.962 7.218-11.828 14.576-16.683 20.617-2.66 3.31-4.086 4.86-6.01 7.166 10.143 8.611 23.763 16.49 38.228 20.611 16.925 4.823 34.335 4.656 48.69-3.632 13.761-7.946 21.98-25.422 25.994-42.604 2.007-8.591 2.985-16.977 3.31-23.617.139-2.824.054-5.24-.037-7.352-1.827-.007-3.594-.008-5.875-.06-6.512-.149-14.693-.44-23.025-.653s-16.818-.346-23.783-.189zm-143.32.642c-5.337-.243-11.058.464-17.542 1.412-11.179 1.635-24.215 3.994-38.875 1.598-1.451 17.316 2.864 34.627 9.86 48.436 7.812 15.42 19.4 25.943 26.392 27.816 26.695 7.153 45.614 2.238 59.27-5.111 10.342-5.566 16.473-11.731 21.174-16.674-9.195-10.248-15.459-20.319-21.295-28.957-6.776-10.029-13.037-18.042-23.748-24.227-4.948-2.856-9.9-4.05-15.237-4.293" style="display:inline;fill:#000;fill-opacity:1;fill-rule:nonzero;stroke:none;stroke-width:14.1;stroke-dasharray:none;stroke-opacity:1"/></g></svg>