<?xml version="1.0" encoding="UTF-8" standalone="no"?>
<!-- Created with Inkscape (http://www.inkscape.org/) -->

<svg
   version="1.1"
   id="svg1"
   width="450.52878"
   height="512.80164"
   viewBox="0 0 450.52878 512.80164"
   sodipodi:docname="user.svg"
   inkscape:version="1.3.2 (091e20e, 2023-11-25, custom)"
   xmlns:inkscape="http://www.inkscape.org/namespaces/inkscape"
   xmlns:sodipodi="http://sodipodi.sourceforge.net/DTD/sodipodi-0.dtd"
   xmlns="http://www.w3.org/2000/svg"
   xmlns:svg="http://www.w3.org/2000/svg">
  <defs
     id="defs1" />
  <sodipodi:namedview
     id="namedview1"
     pagecolor="#ffffff"
     bordercolor="#000000"
     borderopacity="0.25"
     inkscape:showpageshadow="2"
     inkscape:pageopacity="0.0"
     inkscape:pagecheckerboard="0"
     inkscape:deskcolor="#d1d1d1"
     showguides="false"
     inkscape:zoom="1.1953125"
     inkscape:cx="255.5817"
     inkscape:cy="255.1634"
     inkscape:window-width="1368"
     inkscape:window-height="850"
     inkscape:window-x="-6"
     inkscape:window-y="-6"
     inkscape:window-maximized="1"
     inkscape:current-layer="layer1" />
  <g
     inkscape:groupmode="layer"
     id="layer1"
     inkscape:label="User"
     transform="translate(-0.04062864,-0.73687673)">
    <path
       style="fill:#000000"
       d="m 6.6113143,510.9134 c -6.79443999,-4.82603 -8.21105,-16.93586 -4.75194,-40.62166 C 14.603454,383.02849 81.738851,315.31462 168.06404,302.65496 c 20.13293,-2.95251 109.94488,-1.67167 125.74316,1.79327 82.26737,18.04319 142.82931,82.86376 154.94782,165.84351 3.51038,24.03684 1.98611,36.30917 -5.08912,40.97377 -4.93305,3.25231 -432.464946,2.90787 -437.0545857,-0.35211 z M 201.40393,269.55161 C 94.749891,251.6784 52.744004,117.45372 129.77284,40.663177 215.21783,-44.5175 360.29916,15.585399 360.29916,136.16339 c 0,84.61059 -74.87729,147.46804 -158.89523,133.38822 z"
       id="path1" />
  </g>
</svg>
