<?xml version="1.0" encoding="UTF-8"?>
<svg id="Layer_7" data-name="Layer 7" xmlns="http://www.w3.org/2000/svg" viewBox="0 0 1000 207.89" width="1000">
  <defs>
    <style>
      .cls-1 {
        fill: #00c0c6;
      }

      .cls-2 {
        fill: none;
        stroke: #00c0c6;
        stroke-miterlimit: 10;
        stroke-width: 5px;
      }
    </style>
  </defs>
  <g>
    <g>
      <path class="cls-1" d="M165,20.73s-12.27-10.45-32.73-16.59c-.23,0-.68,0-.91-.23-.91-.23-1.59-.45-2.5-.68C118.87.73,107.05-.86,93.87.5c-1.59,0-2.95.45-4.55.68C55.69,5.96,27.28,26.64,12.05,55.73c-.68,1.36-1.59,2.95-2.27,4.32-.45.68-.68,1.59-1.14,2.27-.23.68-.45,1.14-.68,1.82,0,.23-.23.45-.45.91C7.5,65.04-.22,79.82,0,103.23v.45c0,14.55,2.95,28.41,8.41,41.14,0,.45.45.91.45,1.36,0,0,2.95,8.41,11.36,19.09,8.41,11.14,18.86,20.45,30.91,27.5,2.27,1.36,4.55,2.5,7.05,3.86,2.95.91,8.64,1.36,10.45-6.59v-83.86s-1.14-20.91,14.77-30.45c0,0,2.27-1.82,6.14-3.41,5.45-2.27,14.32-4.32,25-.91,0,0,10,2.95,16.82,12.73,0,0,.68,1.36,1.36,1.36.23,0,.45-.23.68-.91,0,0,6.14-15,25-21.82,0,0,17.95-6.14,35.45,3.86,0,0,3.18,1.82,5.45,4.09l.91.91s.45.68.91,0c0,0-9.77-32.27-36.59-50.91h.45Z"/>
      <path class="cls-1" d="M205.49,97.79c-2.95-26.14-27.54-28.2-27.54-28.2-16.59-2.5-27.95,7.73-27.95,7.73-8.86,6.36-11.36,16.59-12.05,22.5-.23,2.73-.23,4.55-.23,4.55,0,10.45-7.27,20.45-7.27,20.45-7.27,8.41-15.23,11.59-20.91,12.5-4.09.68-6.82.45-6.82.45-14.55.45-24.09-10.45-24.09-10.45-.45-.45-.68,0-.68,0v60c.23,7.73-5,13.64-5,13.64-.68.45-.68.68-.45.91.23.45,1.36.68,1.36.68,10.23,2.95,20,4.09,29.09,4.09h2.73c2.05,0,3.86,0,5.68-.23,6.36-.45,12.73-1.59,18.64-3.18,2.05-.45,4.09-1.14,5.68-1.59.91-.23,2.05-.68,2.95-.91h.23c2.05-.68,3.64-1.36,4.55-1.82h0c.23,0,.68-.23.91-.45h.23c44.09-20.23,56.36-62.04,56.36-62.04,6.59-18.86,4.77-36.59,4.77-36.59l-.19-2.03Z"/>
    </g>
    <g>
      <path class="cls-1" d="M379.47,63.17l-4.31.36-.88.17c-2.53.5-4.93.97-7.14,1.84-11.65,4.56-19.56,12.53-24.15,24.36-.81,2.06-1.23,4.27-1.67,6.61l-.2,1.06c-1.22,6.25,0,13.72,1.66,18.01,4.72,12.25,11.57,19.76,22.23,24.36,2.61,1.13,5.54,2.02,9.31,2.81,1.04.1,2.09.2,3.14.3l4.73.18c1.35-.23,2.64-.38,3.88-.52,2.35-.27,4.57-.53,6.73-1.27,11.91-4.07,20.37-11.89,25.17-23.23,3.64-8.62,3.64-21.12,0-29.73-6.94-16.4-21-25.65-38.49-25.31ZM402.38,112.59c-2.74,6.34-7.92,10.99-14.6,13.09-1.24.39-2.56.56-3.96.74-.7.09-1.41.18-2.15.3-2.55.42-5.91-.23-10-1.93-8.81-3.68-18.25-15.91-13.03-29.3,2.77-7.09,7.35-11.67,14.34-14.39.97-.24,1.94-.48,2.92-.71l1.64-.4,2.33-.21h.09c10.43,0,18.36,5.04,22.34,14.19,2.43,5.61,2.46,13.1.06,18.64Z"/>
      <path class="cls-1" d="M449.58,129.65V19.66c-.89-4.88-4.04-7.47-9.28-7.47-.08,0-.16,0-.24,0l-1.85.45c-2.12.83-3.89,2.52-4.75,4.53-.81,1.88-.79,4.54-.77,7.11v105.08c0,.64-.02,1.33-.05,2.04-.08,1.99-.16,4.06.29,5.62.77,2.76,3.88,6.12,7.97,6.12.44,0,.89-.04,1.34-.12,3.36-.61,5.76-2.51,6.94-5.51.6-1.53.52-3.79.45-5.97-.02-.67-.05-1.31-.05-1.9Z"/>
      <path class="cls-1" d="M535.39,63.33c-3.31.03-6.23,1.94-7.45,4.88-.84,2.04-.75,5.66-.66,8.85.02.87.05,1.69.05,2.42v18.64c0,.92.03,1.89.07,2.87.08,2.29.16,4.66-.19,6.61-1.51,8.29-5.16,13.98-11.48,17.89-2.44,1.53-8.35,4.21-13.34,3.41-13.43-2.13-20.12-8.96-22.34-22.72l-.07-27.96c0-.79.04-1.63.08-2.5.1-2.16.2-4.4-.23-6.21-.93-3.92-4.02-6.26-8.4-6.26-.06,0-.11,0-.17,0l-1.8.38c-2.15.82-3.86,2.38-4.69,4.29-1.02,2.33-.85,6.76-.71,10.68.05,1.22.09,2.36.09,3.33v18.36c0,6.29,0,12.24,1.51,17.02,4.12,13.01,13.25,22.03,26.4,26.09,5.02,1.55,13.35,2.48,19.77.85,4.31-1.09,8.01-2.56,11.38-4.53,1.28-.92,2.55-1.84,3.88-2.8-.02.4-.06.9-.16,1.52l-.29,1.87c-.55,3.6-1.03,6.71-2.21,9.68-3.52,8.91-9.92,16.56-18.11,21.54-4.08,2.48-8.56,4.29-13.22,5.34-2.32.52-4.69.85-7.07.99-2.47.15-5.31-.46-7.7.24-2.46.71-4.55,2.47-5.6,4.7-.97,2.07-.97,4.36,0,6.6,1.36,3.12,3.98,4.73,7.72,4.83,21.99.56,45.54-11.12,55.63-29.8,2.71-5.01,4.63-10.4,6-15.91,1.15-4.64,1.12-10.35,1.09-15.87v-52.82c0-.62.01-1.41.03-2.28.08-3.49.18-7.83-.59-9.62-1.23-2.84-3.96-4.59-7.22-4.59Z"/>
      <path class="cls-1" d="M682.63,127.11v-33.05c.02-2.42.03-4.71-.43-6.74-3.57-15.63-16.6-25.64-33.34-25.64-.2,0-.41,0-.61,0l-2.09.18-5.74,1.18c-6.57,2.05-11.86,5.79-15.73,11.11l-.4.53c-.47.63-.99,1.31-1.4,2.07-.22-.39-.43-.83-.64-1.26-.32-.67-.66-1.37-1.03-1.9-1.94-2.75-4.69-5.21-8.17-7.31-1.82-1.1-4.14-2.02-7.3-2.9-11.96-3.31-21.83,3.23-25.52,6.19-1.24,1-2.23,2.23-3.18,3.43-.21.26-.42.53-.64.79l-.06-1.35c0-2.96-.45-4.73-1.61-6.33-1.75-2.4-4.65-3.49-7.73-2.94-3.31.59-5.99,2.89-6.82,5.83-.35,1.23-.31,2.8-.27,4.32.01.47.02.93.02,1.37v58.25c0,.35-.01.73-.02,1.1-.04,1.41-.08,2.87.35,3.94.98,2.52,3.47,4.47,6.5,5.08,1.89.39,3.76-.21,4.7-.6,2.54-1.05,4.29-2.96,5.04-5.51.38-1.27.33-2.87.28-4.42-.01-.49-.03-.97-.03-1.43v-28.77c0-.75-.02-1.54-.04-2.34-.06-2.29-.12-4.66.3-6.46,1.26-5.42,4.26-9.56,8.69-11.96,2.53-1.37,6.42-3.1,10.85-2.39,2.46.4,4.21.86,5.68,1.5,4.71,2.05,8.13,5.93,9.63,10.92.71,2.36.67,5.67.62,8.86-.01.77-.02,1.54-.02,2.29v20.24c0,1.29-.03,2.54-.06,3.76-.15,6.59-.28,12.28,4.48,15.16,1.43.86,2.83,1.3,4.19,1.3.34,0,.67-.03,1-.08,7.25-1.17,7.77-5.83,7.77-13.37v-27.86c0-.68-.01-1.38-.02-2.08-.04-2.75-.08-5.6.49-7.68,1.29-4.71,4.03-8.17,8.63-10.87,1.59-.93,5.8-3,10.62-2.24,8.2,1.28,13.57,5.79,15.52,13.04.63,2.32.59,5.43.56,8.44,0,.71-.02,1.41-.02,2.1v29.41c0,.37,0,.75-.02,1.13-.03,1.61-.06,3.27.42,4.48.89,2.26,2.58,3.91,5.04,4.9,1.57.63,4.19.86,6.15.07,5.49-2.2,5.44-6.82,5.38-13.21,0-.74-.02-1.51-.02-2.31Z"/>
      <path class="cls-1" d="M738.27,63.23c-.29,0-.58,0-.87,0l-3.09.29-1.48.21c-2.54.48-4.94.94-7.18,1.81-11.45,4.44-19.49,12.3-23.87,23.37-3.1,7.83-3.29,19.91-.43,27.51,4.63,12.26,13.09,20.62,25.16,24.87,3.75,1.32,8.41,2,12.93,2,3.13,0,6.19-.33,8.84-1,6.13-1.54,10.6-4.26,14.58-7.01.4,3.64,2.67,6.51,6.02,7.51,3.51,1.04,7.04-.3,9.01-3.41,1.27-2,1.25-4.95,1.24-8.06v-18.05c0-1.4.03-2.86.07-4.34.11-4.43.22-9.01-.59-12.66-4.49-20.46-19.89-33.06-40.35-33.06ZM760.75,112.8h0c-2.8,6.63-8.15,11.46-15.08,13.58-1.13.35-2.35.5-3.64.67-.53.07-1.08.14-1.63.22-3.79.58-7.47-.72-10.27-1.92-14.39-6.18-16.24-21.61-12.96-30.08,2.67-6.92,7.5-11.77,14.26-14.39l4.55-1.11.45-.04c.61-.06,1.22-.11,1.75-.17,13.67,0,19.82,7.98,22.57,14.67,2.32,5.64,2.32,13.1,0,18.58Z"/>
      <path class="cls-1" d="M854.58,129.04l-28.02-33.63c7.47-6.39,14.96-12.79,22.54-19.28,2.42-3.14,1.97-8.75-.89-11.11-5.53-4.54-9.47-1.34-12.95,1.47l-16.57,13.77c-1.14.96-2.29,1.93-3.44,2.89l-1.83,1.53c-.23.18-.43.38-.64.59-.17.17-.32.32-.49.45-.07-.65-.01-1.7.02-2.23.02-.39.04-.74.04-1.02V29.58c0-.95.01-1.88.03-2.8.08-5.38.14-10.02-2.49-12.66-1.44-1.44-3.51-2.13-6.58-2.07l-2.34.6c-1.84.75-3.53,2.42-4.32,4.25-.71,1.65-.67,4.08-.63,6.43,0,.52.02,1.03.02,1.53v104.8c0,.62-.02,1.28-.05,1.96-.07,2.06-.14,4.2.35,5.78,1.08,3.5,4.71,6.72,9.33,5.76,2.99-.61,5.31-2.54,6.36-5.29.66-1.74.59-4.27.51-6.71-.02-.72-.04-1.42-.04-2.08v-17.62l.06-6.94,26.15,31.13.58.75c2.04,2.65,5.4,7.01,9.75,7.01,1.4,0,2.91-.45,4.5-1.57,2.07-1.44,4.75-5.31,3.14-9.55-.48-1.26-1.33-2.32-2.09-3.25Z"/>
      <path class="cls-1" d="M896.87,63.23c-.23,0-.46,0-.69,0-.9.07-1.79.14-2.75.23l-.69.12c-1.83.3-3.55.58-5.18,1.1-7.39,2.31-13.82,6.57-18.1,12.01-3.69,4.68-6.17,9.39-7.81,14.82-5.53,18.31,3.16,35.23,13.57,43.2,5.4,4.13,14.34,8.11,24.2,8.11,2.74,0,5.56-.31,8.39-1.01,5.69-1.4,10.43-3.68,14.93-7.18l.18-.14c2.74-2.13,6.48-5.04,7.2-9.31.41-2.47-.59-4.94-2.67-6.61-2.16-1.72-5.01-2.18-7.43-1.19-1.57.64-2.54,1.74-3.48,2.81-.53.61-1.03,1.18-1.64,1.66-2.01,1.62-4.78,3.63-8.37,4.75-11.98,3.73-22.08-2.34-26.78-10-1-1.64-2.64-4.31-2.9-7.14l41.03-.07c1.03,0,2.11.03,3.22.06,5.22.16,10.62.31,12.9-2.58h0c4.27-5.41-.94-18.8-1.16-19.37-6.2-15.67-18.94-24.27-35.96-24.27ZM919.51,94.74c-.77.1-1.72.07-2.64.04-.43-.01-.85-.03-1.24-.03h-9.81l-29.16-.07c0-1.31.9-3.53,2.52-6.14,2.71-4.33,6.69-7.34,11.77-8.93l3.73-.83,1.9-.21h.12c8.87,0,15.27,2.84,19.57,8.68,1.56,2.13,3.09,4.46,3.24,7.49Z"/>
      <path class="cls-1" d="M997.35,64.16c-2.38-1.91-5.57-2.27-9.87-2.19l-3.31.28-.43.08c-2.27.43-4.42.83-6.49,1.49-3.54,1.13-7.17,2.97-10.52,5.33-.69.55-1.37,1.1-2.06,1.64-.42-3.71-2.71-6.6-6.1-7.55-3.57-1.01-7.27.51-9.21,3.77-1.54,2.61-1.37,9.15-1.23,14.41.03,1.35.07,2.59.07,3.64v40.62c0,1-.01,1.97-.03,2.91-.11,7.32-.2,13.1,6.94,14.47.55.11,1.08.16,1.6.16,4.01,0,6.98-3.04,7.87-6.29.46-1.69.38-3.88.29-6.01-.03-.77-.06-1.52-.06-2.32l.07-16.94c-.49-7.47.06-13.86,1.51-17.55,2.99-7.63,8.71-12.81,16.54-14.96,1.73-.48,3.8-.53,5.81-.58,3.31-.09,6.73-.17,8.81-2.2,1.66-1.63,2.57-4.13,2.44-6.7-.12-2.31-1.05-4.27-2.64-5.55Z"/>
      <path class="cls-1" d="M332.37,97.01c-.36-2.02-.71-3.93-1.3-5.79-5.38-17.03-20.65-27.92-39.1-27.92-.27,0-.55,0-.83,0l-2.53.22-1.6.21c-2.04.37-3.97.71-5.83,1.3-8.59,2.7-15.78,7.84-20.8,14.85-3.45,4.82-5.69,10.4-7.25,18.11-.36,1.8-.31,3.94-.26,6.02.02.71.03,1.41.03,2.09v85.32c0,.87-.01,1.72-.02,2.54-.08,6.57-.15,11.76,5.72,13.62.68.22,1.44.31,2.2.31,1.24,0,2.48-.25,3.34-.61,5.64-2.33,5.45-8.74,5.24-15.52-.04-1.38-.09-2.79-.09-4.22v-51.9c3.49,2.37,7.83,4.89,13.65,6.52,7.81,2.2,17.77,1.05,23.56-1.22,12.59-4.93,20.61-13.36,24.53-25.75.89-2.82,2.82-10.09,1.57-16.69l-.27-1.49ZM315.92,107.71h0c-.43,1.98-.98,3.77-1.65,5.3-3.38,7.75-9.9,12.27-19.93,13.84-2.93.47-6.25-.07-10.14-1.65-7.1-2.88-11.83-8.07-14.05-15.44-.3-.97-.4-1.92-.52-3.01-.06-.6-.13-1.23-.24-1.9-.51-3.21.26-6.84,1.16-9.17,2.66-6.92,7.3-11.73,13.72-14.25,1.55-.43,3.09-.85,4.56-1.25.79-.1,1.59-.19,2.31-.28,11.32,0,19.11,4.73,23.14,14.05,1.49,3.46,2.71,8.89,1.65,13.76Z"/>
    </g>
  </g>
  <!-- <rect class="cls-2" x="-66.8" y="-54.06" width="4426.14" height="1014.13"/> -->
</svg>